# xmcd
#
# Track frame offsets:
# 150
# 20593
# 39283
# 56315
# 67791
# 90530
# 110950
# 126596
# 140291
# 153857
# 173469
#
# Disc length: 2722 seconds
#
# Revision: 1
# Processed by: cddbd v1.5.2PL0 Copyright (c) Steve Scherf et al.
# Submitted via: CedeCatalogueitor 2.6.0.6 http://personales.ya.com/cdcatalogueitor
#
DISCID=860aa00b
DTITLE=Au Revoir Simone - The Bird Of Music
DYEAR=1900
DGENRE=
TTITLE0=The Lucky One
TTITLE1=Sad Song
TTITLE2=Fallen Show
TTITLE3=I Couldn't Sleep
TTITLE4=A Violent Vet Fammable World
TTITLE5=Don't See The Sorrow
TTITLE6=Dark Halls
TTITLE7=Night Majestic
TTITLE8=Stars
TTITLE9=Lark
TTITLE10=The Way To There
EXTD=
EXTT0=
EXTT1=
EXTT2=
EXTT3=
EXTT4=
EXTT5=
EXTT6=
EXTT7=
EXTT8=
EXTT9=
EXTT10=
PLAYORDER=
